# Blender v2.79 (sub 0) OBJ File: 'sala.blend'
# www.blender.org
mtllib escultura_base.mtl
o escultura_base_Cylinder
v 2.491137 1.661278 -0.051601
v 2.641029 2.700837 0.188723
v 2.528408 1.661278 -0.044670
v 2.647152 2.691742 0.193504
v 2.551913 1.661278 -0.018903
v 2.622937 2.697935 0.208031
v 2.611170 1.661278 -0.022883
v 2.599069 2.686144 0.226303
v 2.631182 1.661278 0.010755
v 2.591128 2.681072 0.222521
v 2.729952 1.661278 0.001841
v 2.555335 2.678690 0.234762
v 2.686658 1.661278 0.071146
v 2.509107 2.684161 0.247800
v 2.735048 1.661278 0.099012
v 2.523318 2.672276 0.215593
v 2.719553 1.661278 0.147224
v 2.506264 2.670055 0.202106
v 2.752266 1.661278 0.185841
v 2.493934 2.667811 0.183343
v 2.741653 1.661278 0.230099
v 2.472349 2.669693 0.170026
v 2.650774 1.661278 0.264360
v 2.429183 2.682357 0.170598
v 2.672793 1.661278 0.303673
v 2.455663 2.671590 0.126358
v 2.668901 1.661278 0.341121
v 2.435468 2.678281 0.115685
v 2.627378 1.661278 0.364497
v 2.426121 2.683006 0.100960
v 2.528829 1.661278 0.350855
v 2.448613 2.687704 0.070992
v 2.463625 1.661278 0.337484
v 2.481525 2.705635 0.041563
v 2.430578 1.661278 0.334872
v 2.485238 2.715705 0.037667
v 2.409377 1.661278 0.336565
v 2.504158 2.701687 0.011961
v 2.385933 1.661278 0.331261
v 2.511799 2.712254 0.019412
v 2.333242 1.661278 0.275492
v 2.533019 2.703657 0.007962
v 2.324267 1.661278 0.270052
v 2.560374 2.735627 0.011521
v 2.302911 1.661278 0.230099
v 2.580965 2.766518 0.020355
v 2.295636 1.661278 0.206116
v 2.597320 2.763215 0.025723
v 2.290951 1.661278 0.169973
v 2.612262 2.729495 0.034146
v 2.294289 1.661278 0.142559
v 2.632481 2.708263 0.043565
v 2.302911 1.661278 0.097092
v 2.628901 2.747445 0.072500
v 2.318133 1.661278 0.075554
v 2.627396 2.753769 0.096862
v 2.350127 1.661278 -0.007269
v 2.641654 2.718101 0.116291
v 2.385582 1.661278 -0.042428
v 2.641629 2.752146 0.125463
v 2.412844 1.661278 -0.035301
v 2.666456 2.717213 0.136706
v 2.472028 1.661278 -0.086295
v 2.640214 2.727053 0.166764
v 2.728858 2.686099 0.286314
v 2.748861 2.687511 0.260015
v 2.669079 2.681298 0.333924
v 2.618508 2.681857 0.360287
v 2.587221 2.676197 0.362357
v 2.549438 2.669874 0.359603
v 2.486971 2.676089 0.362838
v 2.455079 2.666574 0.340463
v 2.409522 2.668480 0.319373
v 2.363311 2.676633 0.293334
v 2.357569 2.657973 0.244529
v 2.317069 2.674332 0.211570
v 2.345451 2.645759 0.144710
v 2.304799 2.673857 0.117145
v 2.316627 2.671890 0.067069
v 2.367151 2.662369 -0.001625
v 2.390575 2.673381 -0.045888
v 2.413001 2.684761 -0.077997
v 2.415836 2.683180 -0.077505
v 2.462803 2.687390 -0.102433
v 2.508431 2.696788 -0.095047
v 2.542011 2.731256 -0.052102
v 2.601212 2.774859 -0.079299
v 2.627704 2.727528 -0.059532
v 2.671824 2.746912 -0.052239
v 2.704965 2.731374 -0.025682
v 2.669457 2.810185 0.045784
v 2.712925 2.764780 0.062522
v 2.776703 2.705632 0.085185
v 2.793738 2.711768 0.117579
v 2.769958 2.728292 0.160376
v 2.763654 2.686346 0.227393
v 2.574654 2.970316 0.166527
v 2.579406 2.974781 0.158932
v 2.568404 2.965729 0.172860
v 2.560898 2.961195 0.177687
v 2.552422 2.956890 0.180824
v 2.543303 2.952978 0.182148
v 2.533892 2.949610 0.181610
v 2.524550 2.946916 0.179230
v 2.515635 2.944999 0.175100
v 2.507491 2.943932 0.169378
v 2.500431 2.943757 0.162284
v 2.494725 2.944480 0.154090
v 2.490594 2.946073 0.145113
v 2.488195 2.948476 0.135696
v 2.487622 2.951596 0.126202
v 2.488895 2.955313 0.116995
v 2.491967 2.959484 0.108429
v 2.496718 2.963949 0.100834
v 2.502968 2.968537 0.094501
v 2.510474 2.973070 0.089673
v 2.518950 2.977376 0.086537
v 2.528069 2.981287 0.085212
v 2.537480 2.984655 0.085751
v 2.546822 2.987349 0.088131
v 2.555737 2.989267 0.092261
v 2.563881 2.990334 0.097983
v 2.570941 2.990509 0.105077
v 2.576647 2.989786 0.113270
v 2.580778 2.988192 0.122248
v 2.583177 2.985789 0.131665
v 2.583751 2.982669 0.141159
v 2.582477 2.978952 0.150366
vt 0.860673 0.696176
vt 0.873904 0.000000
vt 0.873904 0.694065
vt 0.135352 0.296706
vt 0.098984 0.921316
vt 0.144350 0.295146
vt 0.220355 0.295669
vt 0.214708 0.997360
vt 0.207409 0.295146
vt 0.220355 0.994228
vt 0.184035 0.303097
vt 0.000000 0.979203
vt 0.032933 0.295146
vt 0.051803 0.992503
vt 0.184035 0.948526
vt 0.144350 0.303273
vt 0.184035 0.295146
vt 0.501953 0.301473
vt 0.501953 0.978697
vt 0.473703 0.302886
vt 0.793761 0.003194
vt 0.773098 0.686078
vt 0.774676 0.006968
vt 0.754434 0.701055
vt 0.784746 0.000000
vt 0.757828 0.690692
vt 0.769255 0.002664
vt 0.710815 0.023027
vt 0.439436 0.301473
vt 0.408173 0.922921
vt 0.442811 0.305243
vt 0.504698 0.995479
vt 0.515002 0.301473
vt 0.515002 0.995177
vt 0.710815 0.000826
vt 0.691638 0.700517
vt 0.706209 0.000000
vt 0.676437 0.704717
vt 0.663397 0.013276
vt 0.667292 0.718599
vt 0.633066 0.023017
vt 0.663471 0.730126
vt 0.619615 0.027036
vt 0.986939 0.686733
vt 0.998265 0.000889
vt 1.000000 0.688083
vt 0.473703 0.969029
vt 0.473703 0.301473
vt 0.464724 0.973137
vt 0.098984 0.295146
vt 0.098984 1.000000
vt 0.051803 0.306702
vt 0.269313 0.965965
vt 0.269313 0.295146
vt 0.264177 0.964267
vt 0.903240 0.759519
vt 0.900930 0.000000
vt 0.908681 0.760464
vt 0.916563 0.024123
vt 0.914468 0.759779
vt 0.929321 0.003329
vt 0.926044 0.757331
vt 0.937958 0.007678
vt 0.937958 0.753918
vt 0.986939 0.774910
vt 0.986939 0.000000
vt 0.974042 0.767572
vt 0.619615 0.000000
vt 0.597717 0.755039
vt 0.604024 0.003844
vt 0.566118 0.728407
vt 0.556706 0.013990
vt 0.571594 0.733390
vt 0.526204 0.022119
vt 0.838722 0.695171
vt 0.807065 0.004881
vt 0.849509 0.693128
vt 0.299111 0.513998
vt 0.342211 0.683618
vt 0.283435 0.510640
vt 0.850963 0.013735
vt 0.837109 0.704808
vt 0.056812 0.018275
vt 0.094829 0.004215
vt 0.022754 0.055648
vt 0.422685 0.078250
vt 0.423131 0.000000
vt 0.423663 0.083186
vt 0.406940 0.085973
vt 0.402156 0.001298
vt 0.388132 0.092278
vt 0.355746 0.016277
vt 0.311653 0.049948
vt 0.324123 0.033905
vt 0.367801 0.112707
vt 0.386990 0.097915
vt 0.345052 0.132753
vt 0.299394 0.071201
vt 0.276078 0.128593
vt 0.276150 0.103447
vt 0.367164 0.150727
vt 0.366207 0.136753
vt 0.372558 0.164062
vt 0.271297 0.160526
vt 0.291736 0.215211
vt 0.269313 0.194543
vt 0.357487 0.203206
vt 0.372109 0.180377
vt 0.339215 0.257527
vt 0.295957 0.248601
vt 0.388338 0.219534
vt 0.389366 0.204940
vt 0.393125 0.229784
vt 0.341334 0.288994
vt 0.425021 0.298225
vt 0.371729 0.300611
vt 0.445405 0.221261
vt 0.417129 0.228449
vt 0.449441 0.220608
vt 0.457307 0.301473
vt 0.483498 0.299214
vt 0.482867 0.300898
vt 0.468683 0.219771
vt 0.513419 0.282973
vt 0.468159 0.212948
vt 0.526204 0.255843
vt 0.746939 0.792709
vt 0.767760 0.819365
vt 0.747209 0.855318
vt 0.745520 0.779459
vt 0.710815 0.817895
vt 0.730600 0.780509
vt 0.322785 0.443688
vt 0.284165 0.471246
vt 0.269313 0.437897
vt 0.581865 0.844594
vt 0.614020 0.793253
vt 0.592651 0.844594
vt 0.568181 0.841975
vt 0.589966 0.776686
vt 0.710815 0.747807
vt 0.767760 0.709319
vt 0.767760 0.779459
vt 0.627649 0.801995
vt 0.641419 0.855410
vt 0.619615 0.836282
vt 0.562908 0.783486
vt 0.526204 0.834653
vt 0.539351 0.776407
vt 0.460646 0.105214
vt 0.526204 0.047607
vt 0.463189 0.108691
vt 0.461098 0.088106
vt 0.515548 0.026847
vt 0.445432 0.003772
vt 0.485767 0.024148
vt 0.436708 0.091329
vt 0.652751 0.795637
vt 0.619615 0.765760
vt 0.646809 0.730126
vt 0.866064 0.882198
vt 0.866064 0.704808
vt 0.862522 0.707421
vt 0.273704 0.533764
vt 0.337466 0.687027
vt 0.405405 0.690450
vt 0.399773 0.868012
vt 0.391915 0.690126
vt 0.269313 0.555535
vt 0.333263 0.690126
vt 0.393692 0.867793
vt 0.377584 0.690243
vt 0.368614 0.301649
vt 0.329553 0.447639
vt 0.387395 0.868262
vt 0.362702 0.692514
vt 0.373246 0.301473
vt 0.335883 0.470838
vt 0.793761 0.710980
vt 0.820691 0.881227
vt 0.818830 0.882153
vt 0.378583 0.301797
vt 0.344814 0.486685
vt 0.402246 0.665571
vt 0.400876 0.487475
vt 0.402246 0.486999
vt 0.363486 0.462186
vt 0.384420 0.302611
vt 0.832067 0.706830
vt 0.845596 0.883417
vt 0.839710 0.884393
vt 0.377886 0.458651
vt 0.390532 0.303882
vt 0.820691 0.708457
vt 0.834407 0.885990
vt 0.689962 0.914828
vt 0.693084 0.735801
vt 0.693084 0.921658
vt 0.396684 0.305562
vt 0.390419 0.483304
vt 0.348769 0.492160
vt 0.371297 0.664186
vt 0.367349 0.666646
vt 0.362702 0.690126
vt 0.357085 0.873886
vt 0.346236 0.697301
vt 0.397953 0.461921
vt 0.402641 0.307586
vt 0.322297 0.506797
vt 0.362794 0.669580
vt 0.351063 0.872060
vt 0.326807 0.693081
vt 0.408173 0.309877
vt 0.408173 0.486999
vt 0.319704 0.513565
vt 0.357808 0.672875
vt 0.344867 0.870556
vt 0.322306 0.691157
vt 0.767760 0.720425
vt 0.787432 0.888408
vt 0.784048 0.886354
vt 0.352581 0.676404
vt 0.299177 0.506474
vt 0.338735 0.869430
vt 0.298431 0.694723
vt 0.679946 0.896610
vt 0.690217 0.733012
vt 0.347314 0.680031
vt 0.332902 0.868726
vt 0.269313 0.704740
vt 0.864513 0.005302
vt 0.144350 0.929389
vt 0.216017 0.991242
vt 0.051803 0.295332
vt 0.148722 0.964412
vt 0.481941 0.986127
vt 0.793761 0.674989
vt 0.745570 0.709319
vt 0.442811 0.952199
vt 0.501953 0.326304
vt 0.710815 0.691884
vt 1.000000 0.000000
vt 0.442811 0.314692
vt 0.076554 0.997749
vt 0.232274 0.308120
vt 0.873905 0.041966
vt 0.937958 0.032432
vt 0.619615 0.776407
vt 0.793761 0.024842
vt 0.252343 0.083764
vt 0.255841 0.107927
vt 0.245156 0.127622
vt 0.259754 0.162914
vt 0.243606 0.182119
vt 0.269313 0.240469
vt 0.218642 0.228514
vt 0.211815 0.263815
vt 0.179576 0.264412
vt 0.163043 0.292397
vt 0.134192 0.295146
vt 0.094838 0.246887
vt 0.075684 0.268497
vt 0.029686 0.253483
vt 0.052320 0.273925
vt 0.226403 0.039434
vt 0.269313 0.064889
vt 0.012246 0.148038
vt 0.140110 0.004792
vt 0.017616 0.190570
vt 0.196600 0.007043
vt 0.225084 0.021331
vt 0.123999 0.000000
vt 0.007016 0.127350
vt 0.001631 0.114779
vt 0.000000 0.099384
vt 0.077624 0.007890
vt 0.024183 0.049045
vt 0.043859 0.027705
vt 0.481068 0.205740
vt 0.767760 0.779459
vt 0.745520 0.845180
vt 0.562908 0.776407
vt 0.718231 0.719211
vt 0.641419 0.795637
vt 0.562908 0.872742
vt 0.646809 0.795569
vt 0.640982 0.794245
vt 0.635492 0.791716
vt 0.630551 0.788078
vt 0.626350 0.783473
vt 0.623048 0.778075
vt 0.620774 0.772095
vt 0.619615 0.759314
vt 0.620774 0.753005
vt 0.623048 0.747076
vt 0.626350 0.741755
vt 0.630551 0.737245
vt 0.635492 0.733721
vt 0.640981 0.731317
vt 0.652751 0.730194
vt 0.669010 0.737685
vt 0.658579 0.731518
vt 0.664069 0.734047
vt 0.673211 0.742290
vt 0.676513 0.747687
vt 0.678786 0.753668
vt 0.679946 0.760003
vt 0.679946 0.766449
vt 0.673211 0.784008
vt 0.678786 0.772757
vt 0.676513 0.778686
vt 0.669010 0.788518
vt 0.664069 0.792042
vt 0.658579 0.794446
vt 0.845596 0.875632
vt 0.405405 0.868911
vt 0.364865 0.302320
vt 0.820691 0.704808
vt 0.371297 0.659263
vt 0.845596 0.704808
vt 0.371297 0.486999
vt 0.362702 0.875962
vt 0.787432 0.709319
vt 0.686372 0.730126
vn 0.1760 0.2712 -0.9463
vn 0.7308 0.1467 -0.6667
vn -0.0627 0.3512 -0.9342
vn 0.8403 0.2096 -0.4999
vn -0.0852 0.3195 -0.9437
vn 0.8476 -0.0361 0.5295
vn 0.4714 0.3279 -0.8187
vn 0.9256 0.2341 0.2975
vn 0.7178 0.3393 -0.6080
vn 0.9116 0.3481 0.2186
vn 0.3502 0.1215 0.9288
vn 0.8536 0.2066 -0.4781
vn 0.9296 0.3556 0.0966
vn 0.4543 0.3772 0.8070
vn -0.1304 0.3105 0.9416
vn -0.1892 0.3359 0.9227
vn -0.0731 0.3720 0.9253
vn 0.0738 0.3741 0.9244
vn -0.2028 0.3941 0.8964
vn -0.6820 0.3460 0.6444
vn -0.4872 0.3412 0.8039
vn -0.8279 0.3447 0.4425
vn -0.8974 0.3473 0.2722
vn -0.9288 0.3505 0.1204
vn -0.9334 0.3403 -0.1136
vn -0.9397 0.2918 -0.1782
vn -0.7853 0.2744 -0.5550
vn -0.8622 0.3817 -0.3331
vn -0.6578 0.3566 -0.6634
vn 0.2519 0.0924 -0.9633
vn -0.3855 0.2362 -0.8919
vn -0.6023 0.3853 -0.6991
vn 0.8714 -0.1010 -0.4800
vn 0.0000 -1.0000 0.0000
vn -0.5437 0.0734 0.8361
vn 0.1868 0.9768 -0.1051
vn -0.2856 0.9309 0.2277
vn -0.1741 0.9831 0.0567
vn -0.0550 0.9979 0.0332
vn 0.1384 0.9874 0.0763
vn -0.2928 0.9561 0.0107
vn -0.1154 0.9932 -0.0177
vn -0.0892 0.9942 -0.0603
vn -0.2131 0.9207 -0.3269
vn 0.2481 0.8226 0.5116
vn -0.2306 0.8555 -0.4635
vn -0.0764 0.7733 0.6294
vn -0.0284 0.9464 0.3218
vn -0.0470 0.9842 -0.1710
vn -0.3904 0.9128 0.1195
vn -0.6932 0.4677 0.5484
vn 0.4870 0.7186 -0.4964
vn -0.1294 0.9886 -0.0768
vn -0.1804 0.9754 -0.1265
vn -0.7954 0.5871 0.1507
vn -0.8403 0.5006 0.2081
vn 0.8129 0.5430 0.2106
vn 0.8923 0.4299 0.1381
vn 0.5099 0.7046 0.4936
vn -0.7087 0.2713 -0.6513
vn 0.0331 0.3734 0.9271
vn 0.2532 0.5389 0.8034
vn -0.1946 0.2550 -0.9471
vn 0.1529 0.3996 0.9039
vn -0.2053 0.8382 0.5053
vn -0.1647 0.6303 0.7586
vn -0.3358 0.8886 0.3123
vn -0.2792 0.1273 0.9518
vn -0.2431 0.2492 -0.9374
vn -0.6251 0.0974 0.7744
vn -0.0449 0.2786 -0.9593
vn -0.8375 0.0685 0.5421
vn 0.3535 0.3240 -0.8776
vn -0.5186 0.0772 0.8515
vn 0.8665 0.2809 -0.4127
vn -0.7883 0.2330 0.5695
vn 0.6388 0.2926 -0.7116
vn -0.8993 0.0851 0.4290
vn 0.6823 0.2546 -0.6853
vn -0.9452 0.1635 0.2825
vn 0.8106 0.2122 -0.5458
vn -0.9694 0.2100 0.1276
vn 0.7151 0.1194 -0.6888
vn 0.9331 0.2166 -0.2871
vn -0.9845 0.1605 -0.0714
vn 0.5424 0.2170 0.8116
vn 0.9530 0.2432 -0.1807
vn -0.9515 0.1144 -0.2855
vn 0.5230 0.2182 0.8239
vn 0.6326 0.2096 -0.7456
vn -0.8761 0.1566 -0.4560
vn -0.4643 0.0683 0.8831
vn 0.9466 0.2316 0.2244
vn -0.7351 0.1974 -0.6486
vn 0.3061 0.1923 0.9324
vn 0.9386 0.2383 0.2496
vn -0.6133 0.2026 -0.7635
vn 0.2881 0.2063 0.9351
vn 0.7526 -0.3570 0.5533
vn 0.6007 -0.3497 0.7190
vn 0.4320 -0.3387 0.8358
vn 0.1247 -0.3495 0.9286
vn -0.0140 -0.3279 0.9446
vn 0.0228 -0.2720 0.9620
vn -0.4749 -0.3282 0.8165
vn -0.4091 -0.3192 0.8548
vn -0.5080 -0.2947 0.8093
vn -0.8960 -0.3693 0.2466
vn -0.6637 -0.1808 0.7258
vn -0.9147 -0.3145 -0.2539
vn -0.5912 -0.0668 0.8038
vn -0.9072 -0.3704 -0.1997
vn -0.7677 -0.3865 -0.5111
vn -0.8072 -0.3077 -0.5037
vn -0.7351 -0.2859 -0.6148
vn -0.0482 -0.3744 -0.9260
vn -0.4172 -0.3390 -0.8432
vn 0.2253 -0.3936 -0.8912
vn 0.8532 -0.2976 -0.4283
vn -0.2621 -0.2289 -0.9375
vn 0.1587 -0.3035 -0.9395
vn 0.2879 -0.3150 -0.9044
vn 0.4879 -0.3361 -0.8056
vn 0.7709 -0.2008 0.6045
vn 0.2442 -0.1209 -0.9622
vn 0.2491 -0.1005 -0.9633
vn 0.8627 -0.3176 -0.3935
vn 0.7423 -0.3732 0.5565
vn -0.4389 0.2316 -0.8682
vn 0.9490 -0.2996 -0.0982
vn 0.8534 -0.3355 0.3990
vn 0.0043 0.9984 0.0569
vn 0.0192 0.9921 0.1241
vn 0.0257 0.9993 0.0282
vn -0.5429 0.8396 0.0141
vn -0.1691 0.9837 0.0615
vn 0.1032 0.9906 0.0894
vn -0.8605 0.2184 -0.4603
vn 0.0258 0.9991 0.0347
vn 0.1312 0.9884 0.0766
vn -0.0050 0.9890 0.1478
vn 0.0701 0.9252 0.3730
vn -0.2704 0.8857 -0.3774
vn -0.0152 0.6889 0.7247
vn -0.0828 0.9948 -0.0587
vn -0.2605 0.9645 -0.0443
vn -0.3660 0.9299 0.0377
vn -0.4253 0.9047 0.0236
vn 0.1793 0.9132 -0.3659
vn -0.8600 0.4416 0.2557
vn 0.3079 0.9416 -0.1363
vn -0.7576 0.6287 0.1755
vn -0.6091 0.7910 -0.0575
vn 0.2787 0.9172 -0.2846
vn -0.3892 0.9173 -0.0834
vn 0.0995 0.9079 0.4071
vn -0.8049 0.3031 -0.5101
vn -0.2245 0.9397 -0.2578
vn 0.2348 0.5581 0.7958
vn 0.2306 0.9267 -0.2968
vn -0.0155 0.9298 -0.3676
vn 0.3246 0.9455 -0.0261
vn 0.1125 0.9935 0.0155
vn -0.3358 0.8887 0.3122
vn -0.3361 0.8885 0.3124
vn -0.3357 0.8887 0.3122
vn -0.3360 0.8887 0.3120
vn -0.3358 0.8885 0.3127
vn -0.3359 0.8886 0.3123
vn -0.3358 0.8886 0.3124
vn -0.3359 0.8886 0.3122
vn -0.3359 0.8886 0.3124
vn -0.3359 0.8887 0.3122
vn -0.3359 0.8887 0.3120
vn -0.9167 -0.0140 -0.3993
vn -0.1836 0.2625 -0.9473
vn -0.4385 0.1199 0.8907
vn -0.0168 0.2853 -0.9583
vn -0.5807 0.0992 0.8080
vn 0.1494 0.3111 -0.9386
vn -0.7079 0.0703 0.7028
vn 0.3399 0.3226 -0.8834
vn 0.0209 0.0261 0.9994
vn 0.5237 0.2929 -0.8000
vn -0.8260 0.1728 -0.5365
vn 0.9262 0.2750 -0.2578
vn -0.4675 -0.0009 0.8840
vn 0.9727 0.2320 -0.0001
vn -0.8206 0.1187 0.5590
vn 0.7552 0.2364 0.6114
vn 0.9004 0.2197 -0.3754
vn -0.7948 0.2346 -0.5597
vn 0.6037 0.2310 0.7630
vn 0.7284 0.1788 -0.6615
vn -0.7143 0.2216 -0.6638
vn 0.4392 0.2043 0.8748
vn 0.9700 0.2421 0.0210
vn -0.8825 0.1534 -0.4445
vn 0.2480 0.2019 0.9475
vn 0.7692 0.2296 0.5963
vn -0.7645 0.1919 -0.6154
vn 0.0747 0.1593 0.9844
vn 0.8758 0.2284 0.4253
vn 0.4609 0.2641 -0.8473
vn -0.1209 0.1819 0.9759
usemtl mat_escultura_base
s off
f 1/1/1 65/2/1 3/3/1
f 3/4/2 67/5/2 5/6/2
f 5/7/3 68/8/3 7/9/3
f 7/9/4 69/10/4 9/11/4
f 9/12/5 70/13/5 11/14/5
f 70/15/6 13/16/6 11/17/6
f 13/18/7 72/19/7 15/20/7
f 15/21/8 73/22/8 17/23/8
f 17/23/9 74/24/9 19/25/9
f 19/25/10 75/26/10 21/27/10
f 75/26/11 23/28/11 21/27/11
f 23/29/12 77/30/12 25/31/12
f 25/32/13 78/33/13 27/34/13
f 27/35/14 79/36/14 29/37/14
f 29/37/15 80/38/15 31/39/15
f 31/39/16 81/40/16 33/41/16
f 33/41/17 82/42/17 35/43/17
f 35/44/18 83/45/18 37/46/18
f 37/47/19 84/48/19 39/49/19
f 39/50/20 85/51/20 41/52/20
f 41/53/21 86/54/21 43/55/21
f 43/56/22 87/57/22 45/58/22
f 45/58/23 88/59/23 47/60/23
f 47/60/24 89/61/24 49/62/24
f 49/62/25 90/63/25 51/64/25
f 51/65/26 91/66/26 53/67/26
f 53/68/27 92/69/27 55/70/27
f 55/70/28 93/71/28 57/72/28
f 57/72/29 94/73/29 59/74/29
f 59/75/30 95/76/30 61/77/30
f 40/78/31 117/79/31 42/80/31
f 61/77/32 96/81/32 63/82/32
f 96/81/33 1/1/33 63/82/33
f 47/83/34 51/84/34 41/85/34
f 4/86/35 66/87/35 2/88/35
f 6/89/36 65/90/36 4/86/36
f 8/91/37 67/92/37 6/89/37
f 8/91/38 69/93/38 68/94/38
f 12/95/39 69/93/39 10/96/39
f 14/97/40 70/98/40 12/95/40
f 14/97/41 72/99/41 71/100/41
f 18/101/42 72/99/42 16/102/42
f 20/103/43 73/104/43 18/101/43
f 20/103/44 75/105/44 74/106/44
f 24/107/45 75/105/45 22/108/45
f 24/107/46 77/109/46 76/110/46
f 28/111/47 77/109/47 26/112/47
f 30/113/48 78/114/48 28/111/48
f 30/113/49 80/115/49 79/116/49
f 34/117/50 80/115/50 32/118/50
f 36/119/51 81/120/51 34/117/51
f 36/119/52 83/121/52 82/122/52
f 38/123/53 84/124/53 83/121/53
f 40/125/54 85/126/54 84/124/54
f 42/127/55 86/128/55 85/129/55
f 46/130/56 86/131/56 44/132/56
f 46/133/57 88/134/57 87/135/57
f 50/136/58 88/137/58 48/138/58
f 52/139/59 89/140/59 50/136/59
f 52/141/60 91/142/60 90/143/60
f 54/144/61 92/145/61 91/146/61
f 58/147/62 92/148/62 56/149/62
f 60/150/63 93/151/63 58/152/63
f 62/153/64 94/154/64 60/150/64
f 62/153/65 96/155/65 95/156/65
f 2/88/66 96/155/66 64/157/66
f 99/158/67 123/159/67 115/160/67
f 16/161/68 103/162/68 104/163/68
f 44/164/69 117/79/69 118/165/69
f 16/166/70 105/167/70 18/168/70
f 46/169/71 118/165/71 119/170/71
f 18/168/72 106/171/72 20/172/72
f 46/133/73 120/173/73 48/174/73
f 20/172/74 107/175/74 22/176/74
f 48/174/75 121/177/75 50/178/75
f 24/179/76 107/180/76 108/181/76
f 50/178/77 122/182/77 52/183/77
f 26/184/78 108/185/78 109/186/78
f 54/187/79 122/182/79 123/188/79
f 28/189/80 109/190/80 110/191/80
f 56/192/81 123/188/81 124/193/81
f 30/194/82 110/191/82 111/195/82
f 2/196/83 97/197/83 4/198/83
f 56/192/84 125/199/84 58/200/84
f 32/201/85 111/202/85 112/203/85
f 4/204/86 99/205/86 6/206/86
f 60/207/87 125/199/87 126/208/87
f 34/209/88 112/203/88 113/210/88
f 6/206/89 100/211/89 8/212/89
f 60/207/90 127/213/90 62/214/90
f 36/215/91 113/210/91 114/216/91
f 8/212/92 101/217/92 10/218/92
f 64/219/93 127/220/93 128/221/93
f 36/215/94 115/222/94 38/223/94
f 10/218/95 102/224/95 12/225/95
f 64/226/96 98/227/96 2/196/96
f 40/78/97 115/222/97 116/228/97
f 12/225/98 103/229/98 14/230/98
f 1/1/99 66/231/99 65/2/99
f 3/4/100 65/232/100 67/5/100
f 5/7/101 67/233/101 68/8/101
f 7/9/102 68/8/102 69/10/102
f 9/12/103 69/234/103 70/13/103
f 70/15/104 71/235/104 13/16/104
f 13/18/105 71/236/105 72/19/105
f 15/21/106 72/237/106 73/22/106
f 17/23/107 73/22/107 74/24/107
f 19/25/108 74/24/108 75/26/108
f 75/26/109 76/238/109 23/28/109
f 23/29/110 76/239/110 77/30/110
f 25/32/111 77/240/111 78/33/111
f 27/35/112 78/241/112 79/36/112
f 29/37/113 79/36/113 80/38/113
f 31/39/114 80/38/114 81/40/114
f 33/41/115 81/40/115 82/42/115
f 35/44/116 82/242/116 83/45/116
f 37/47/117 83/243/117 84/48/117
f 39/50/118 84/244/118 85/51/118
f 41/53/119 85/245/119 86/54/119
f 43/56/120 86/246/120 87/57/120
f 45/58/121 87/57/121 88/59/121
f 47/60/122 88/59/122 89/61/122
f 49/62/123 89/61/123 90/63/123
f 51/65/124 90/247/124 91/66/124
f 53/68/125 91/248/125 92/69/125
f 55/70/126 92/69/126 93/71/126
f 57/72/127 93/71/127 94/73/127
f 59/75/128 94/249/128 95/76/128
f 40/78/129 116/228/129 117/79/129
f 61/77/130 95/76/130 96/81/130
f 96/81/131 66/231/131 1/1/131
f 1/250/34 3/251/34 5/252/34
f 5/252/34 7/253/34 9/254/34
f 9/254/34 11/255/34 13/256/34
f 13/256/34 15/257/34 17/258/34
f 17/258/34 19/259/34 21/260/34
f 23/261/34 25/262/34 29/263/34
f 25/262/34 27/264/34 29/263/34
f 17/258/34 21/260/34 23/261/34
f 9/254/34 13/256/34 23/261/34
f 13/256/34 17/258/34 23/261/34
f 5/252/34 9/254/34 23/261/34
f 61/265/34 63/266/34 1/250/34
f 1/250/34 5/252/34 61/265/34
f 5/252/34 23/261/34 33/267/34
f 61/265/34 5/252/34 55/268/34
f 23/261/34 29/263/34 31/269/34
f 23/261/34 31/269/34 33/267/34
f 57/270/34 59/271/34 61/265/34
f 51/84/34 53/272/34 55/268/34
f 55/268/34 57/270/34 61/265/34
f 5/252/34 33/267/34 55/268/34
f 35/273/34 37/274/34 39/275/34
f 33/267/34 35/273/34 41/85/34
f 55/268/34 33/267/34 41/85/34
f 51/84/34 55/268/34 41/85/34
f 47/83/34 49/276/34 51/84/34
f 43/277/34 45/278/34 41/85/34
f 45/278/34 47/83/34 41/85/34
f 35/273/34 39/275/34 41/85/34
f 4/86/132 65/90/132 66/87/132
f 6/89/133 67/92/133 65/90/133
f 8/91/134 68/94/134 67/92/134
f 8/91/135 10/96/135 69/93/135
f 12/95/136 70/98/136 69/93/136
f 14/97/137 71/100/137 70/98/137
f 14/97/138 16/102/138 72/99/138
f 18/101/139 73/104/139 72/99/139
f 20/103/140 74/106/140 73/104/140
f 20/103/141 22/108/141 75/105/141
f 24/107/142 76/110/142 75/105/142
f 24/107/143 26/112/143 77/109/143
f 28/111/144 78/114/144 77/109/144
f 30/113/145 79/116/145 78/114/145
f 30/113/146 32/118/146 80/115/146
f 34/117/147 81/120/147 80/115/147
f 36/119/148 82/122/148 81/120/148
f 36/119/149 38/123/149 83/121/149
f 38/123/150 40/125/150 84/124/150
f 40/125/151 42/279/151 85/126/151
f 42/127/152 44/280/152 86/128/152
f 46/130/153 87/281/153 86/131/153
f 46/133/154 48/174/154 88/134/154
f 50/136/155 89/140/155 88/137/155
f 52/139/156 90/282/156 89/140/156
f 52/141/157 54/283/157 91/142/157
f 54/144/158 56/284/158 92/145/158
f 58/147/159 93/285/159 92/148/159
f 60/150/160 94/154/160 93/151/160
f 62/153/161 95/156/161 94/154/161
f 62/153/162 64/157/162 96/155/162
f 2/88/163 66/87/163 96/155/163
f 99/158/164 97/286/164 98/287/164
f 98/287/165 128/288/165 127/289/165
f 127/289/166 126/290/166 125/291/166
f 125/291/165 124/292/165 123/159/165
f 123/159/167 122/293/167 121/294/167
f 121/294/168 120/295/168 123/159/168
f 120/295/169 119/296/169 123/159/169
f 119/296/170 118/297/170 115/160/170
f 118/297/67 117/298/67 115/160/67
f 117/298/171 116/299/171 115/160/171
f 115/160/67 114/300/67 111/301/67
f 114/300/169 113/302/169 111/301/169
f 113/302/170 112/303/170 111/301/170
f 111/301/170 110/304/170 109/305/170
f 109/305/172 108/306/172 107/307/172
f 107/307/169 106/308/169 103/309/169
f 106/308/170 105/310/170 103/309/170
f 105/310/173 104/311/173 103/309/173
f 103/309/174 102/312/174 101/313/174
f 101/313/170 100/314/170 103/309/170
f 100/314/173 99/158/173 103/309/173
f 99/158/67 98/287/67 127/289/67
f 127/289/67 125/291/67 99/158/67
f 125/291/67 123/159/67 99/158/67
f 111/301/67 109/305/67 115/160/67
f 109/305/67 107/307/67 115/160/67
f 123/159/67 119/296/67 115/160/67
f 107/307/67 103/309/67 115/160/67
f 103/309/67 99/158/67 115/160/67
f 16/161/175 14/315/175 103/162/175
f 44/164/176 42/80/176 117/79/176
f 16/166/177 104/316/177 105/167/177
f 46/169/178 44/164/178 118/165/178
f 18/168/179 105/167/179 106/171/179
f 46/133/180 119/317/180 120/173/180
f 20/172/181 106/171/181 107/175/181
f 48/174/182 120/173/182 121/177/182
f 24/179/183 22/318/183 107/180/183
f 50/178/184 121/177/184 122/182/184
f 26/184/185 24/319/185 108/185/185
f 54/187/186 52/183/186 122/182/186
f 28/189/187 26/320/187 109/190/187
f 56/192/188 54/187/188 123/188/188
f 30/194/189 28/189/189 110/191/189
f 2/196/190 98/227/190 97/197/190
f 56/192/191 124/193/191 125/199/191
f 32/201/192 30/321/192 111/202/192
f 4/204/193 97/322/193 99/205/193
f 60/207/194 58/200/194 125/199/194
f 34/209/195 32/201/195 112/203/195
f 6/206/196 99/205/196 100/211/196
f 60/207/197 126/208/197 127/213/197
f 36/215/198 34/209/198 113/210/198
f 8/212/199 100/211/199 101/217/199
f 64/219/200 62/323/200 127/220/200
f 36/215/201 114/216/201 115/222/201
f 10/218/202 101/217/202 102/224/202
f 64/226/203 128/324/203 98/227/203
f 40/78/204 38/223/204 115/222/204
f 12/225/205 102/224/205 103/229/205
