# Blender v2.79 (sub 0) OBJ File: 'sala.blend'
# www.blender.org
mtllib escultura.mtl
o escultura_Icosphere
v 2.539549 2.912792 0.119276
v 2.842045 2.989951 0.339049
v 2.488212 3.093838 0.277277
v 2.340439 3.077350 0.119276
v 2.468601 3.062106 -0.099083
v 2.768430 3.035448 -0.047014
v 2.607001 3.286049 0.326874
v 2.405847 3.259539 0.216415
v 2.396637 3.265232 0.015445
v 2.624832 3.314901 -0.143203
v 2.782570 3.298417 0.119276
v 2.539549 3.394809 0.119276
v 2.482370 2.877502 0.295258
v 2.651998 2.952005 0.200974
v 2.616784 3.022437 0.356974
v 2.714938 3.068508 0.119276
v 2.633646 2.988709 0.050911
v 2.435177 3.008027 0.119276
v 2.346659 3.029549 0.259418
v 2.501785 2.979162 0.003046
v 2.332387 3.018646 -0.031236
v 2.614419 3.027166 -0.111146
v 2.937128 3.176906 0.248455
v 2.782626 3.176906 0.040296
v 2.539549 3.176906 0.333182
v 2.785266 3.176906 0.457476
v 2.324335 3.176906 0.189202
v 2.401790 3.176906 0.308884
v 2.375692 3.176906 -0.106255
v 2.330877 3.176906 0.051475
v 2.705501 3.176906 -0.109137
v 2.539549 3.176906 -0.108164
v 2.778666 3.359577 0.293003
v 2.480158 3.295687 0.302058
v 2.374834 3.278707 0.119276
v 2.462329 3.331346 -0.118379
v 2.744944 3.333816 -0.029952
v 2.590256 3.442421 0.275339
v 2.676987 3.399286 0.119276
v 2.439090 3.377827 0.192263
v 2.418149 3.419708 0.031075
v 2.570228 3.337549 0.024853
vt 0.399666 0.155061
vt 0.295431 0.101937
vt 0.427315 0.028357
vt 0.131605 0.000000
vt 0.214674 0.198967
vt 0.890763 0.673563
vt 0.739537 0.673563
vt 0.876950 0.561047
vt 0.979135 0.604102
vt 0.413106 0.267090
vt 0.313807 0.221585
vt 0.000000 0.129080
vt 0.659034 0.121829
vt 0.728524 0.225795
vt 0.599126 0.190222
vt 0.863413 0.466838
vt 0.751443 0.509896
vt 0.811189 0.418631
vt 0.886007 0.882048
vt 0.917267 0.978803
vt 0.823866 0.978803
vt 0.217830 0.290266
vt 0.333771 0.350211
vt 0.207408 0.401210
vt 0.814145 0.000000
vt 0.988540 0.062628
vt 0.819169 0.183368
vt 0.568761 0.081245
vt 0.920833 0.406349
vt 0.414191 0.376097
vt 0.427315 0.442350
vt 0.318130 0.422233
vt 0.133875 0.290059
vt 0.536867 0.258655
vt 0.533449 0.390671
vt 0.427315 0.260963
vt 0.081348 0.705337
vt 0.000210 0.654145
vt 0.106538 0.607533
vt 0.219318 0.695742
vt 0.162586 0.699714
vt 0.230337 0.578923
vt 0.438162 0.494795
vt 0.532729 0.406349
vt 0.568556 0.547488
vt 0.513094 0.730452
vt 0.455071 0.627024
vt 0.594651 0.658976
vt 0.656389 0.574338
vt 0.668996 0.451695
vt 0.292927 0.616746
vt 0.739537 0.551465
vt 0.739537 0.684284
vt 0.000000 0.505505
vt 0.502270 0.159420
vt 0.636076 0.815050
vt 0.823866 0.882048
vt 0.823866 1.000000
vt 0.739537 0.963510
vt 0.101054 0.409831
vt 0.206214 0.494007
vt 0.303956 0.505505
vt 0.291281 0.760792
vt 0.206033 0.785929
vt 0.117723 0.794880
vt 0.005592 0.769498
vt 0.924777 0.882048
vt 0.739537 0.808739
vt 0.832753 0.722349
vt 0.988540 0.218065
vt 0.477494 0.900976
vt 0.228835 0.893145
vt 0.137452 0.855457
vt 0.032670 0.893145
vt 0.674010 0.000000
vt 0.924777 0.673563
vt 0.636586 0.406349
vt 0.814145 0.382561
vt 0.427315 0.696728
vt 0.409841 0.854437
vt 0.292927 0.936352
vt 0.299701 0.802357
vt 0.907824 0.337928
vt 0.814145 0.285759
vt 0.907824 0.218065
vt 1.000000 0.218065
vt 1.000000 0.336797
vt 0.907824 0.276152
vt 0.976982 0.470605
vt 0.814145 0.082741
vt 0.424799 0.936352
vt 0.410354 0.648268
vt 0.410354 0.802357
vt 0.292927 0.726264
vt 0.419859 0.505505
vt 0.419859 0.648268
vt 0.292927 0.536080
vn 0.3706 -0.9265 -0.0654
vn 0.5232 -0.6604 -0.5386
vn -0.6327 -0.6934 -0.3446
vn -0.6606 -0.7240 -0.1988
vn 0.2543 -0.8020 -0.5406
vn 0.6024 -0.5748 -0.5539
vn -0.5860 -0.1710 0.7921
vn -0.9881 -0.1538 -0.0086
vn -0.3357 -0.3269 -0.8834
vn 0.3850 -0.2221 -0.8958
vn 0.8026 -0.1256 0.5831
vn -0.1518 -0.4856 0.8609
vn -0.9908 -0.1272 -0.0471
vn -0.0116 -0.0717 -0.9974
vn 0.8724 0.1904 -0.4502
vn 0.0508 0.3175 0.9469
vn -0.7777 0.3280 0.5363
vn -0.9623 0.1565 -0.2224
vn 0.0840 0.9908 -0.1062
vn 0.6908 0.7231 -0.0026
vn -0.0277 0.8507 -0.5249
vn -0.1204 0.8877 -0.4443
vn -0.0230 0.9898 -0.1409
vn 0.4318 0.8266 -0.3610
vn 0.4318 0.8266 -0.3611
vn -0.9152 0.1647 -0.3679
vn 0.0175 0.9683 0.2493
vn -0.8846 0.4103 0.2215
vn -0.8830 0.3185 0.3448
vn -0.2959 0.9362 -0.1895
vn -0.5707 0.5407 0.6180
vn -0.1621 0.2932 0.9422
vn -0.0312 0.9588 -0.2824
vn 0.4045 0.9141 -0.0278
vn 0.6719 0.7033 -0.2325
vn 0.9677 0.1378 -0.2113
vn 0.8886 0.0081 -0.4586
vn 0.6546 0.2029 -0.7282
vn -0.1638 -0.1465 -0.9756
vn -0.0116 -0.0718 -0.9974
vn -0.8623 0.4687 -0.1917
vn -0.8230 0.5150 -0.2397
vn -0.9065 0.4201 -0.0431
vn -0.7221 0.5976 0.3485
vn -0.7431 0.5148 0.4275
vn -0.1712 0.1687 0.9707
vn -0.1772 0.1656 0.9701
vn -0.1370 0.6601 0.7386
vn 0.7063 0.4876 0.5132
vn 0.7098 0.6693 -0.2197
vn -0.0057 -0.2428 -0.9701
vn -0.0059 0.0170 -0.9998
vn -0.0882 -0.0243 -0.9958
vn -0.8231 0.5174 -0.2339
vn -0.9534 0.1325 -0.2709
vn -0.9963 -0.0469 0.0716
vn -0.7042 0.5445 0.4557
vn -0.8323 0.1306 0.5387
vn 0.0299 -0.3281 0.9442
vn -0.4286 0.3138 0.8473
vn -0.4496 -0.0879 0.8889
vn -0.0104 -0.5373 0.8433
vn 0.7487 0.3615 -0.5557
vn 0.5863 -0.6832 -0.4352
vn 0.8882 -0.3026 0.3459
vn 0.1536 -0.9572 -0.2454
vn 0.1584 -0.9563 -0.2457
vn -0.2362 -0.7904 -0.5652
vn -0.0577 -0.7840 -0.6180
vn -0.2449 -0.9645 0.0992
vn -0.5580 -0.7626 0.3273
vn -0.5730 -0.7831 -0.2417
vn -0.6685 -0.6718 -0.3190
vn -0.1631 0.0861 0.9828
vn 0.5108 -0.7968 0.3227
vn 0.7749 -0.5855 -0.2380
vn 0.4826 -0.8353 -0.2633
vn -0.4903 0.0853 0.8674
vn 0.5554 -0.7037 0.4431
vn -0.1009 -0.9151 0.3904
usemtl Material.002
s off
f 1/1/1 14/2/1 13/3/1
f 2/4/2 14/2/2 16/5/2
f 1/6/3 13/7/3 18/8/3
f 1/6/4 18/8/4 20/9/4
f 1/1/5 20/10/5 17/11/5
f 2/4/6 16/5/6 23/12/6
f 3/13/7 15/14/7 25/15/7
f 4/16/8 19/17/8 27/18/8
f 5/19/9 21/20/9 29/21/9
f 6/22/10 22/23/10 31/24/10
f 2/25/11 23/26/11 26/27/11
f 3/13/12 25/15/12 28/28/12
f 4/16/13 27/18/13 30/29/13
f 5/30/14 29/31/14 32/32/14
f 6/22/15 31/24/15 24/33/15
f 7/34/16 33/35/16 38/36/16
f 8/37/17 34/38/17 40/39/17
f 9/40/18 35/41/18 41/42/18
f 10/43/19 36/44/19 42/45/19
f 11/46/20 37/47/20 39/48/20
f 39/48/21 42/45/21 12/49/21
f 39/48/22 37/47/22 42/45/22
f 37/47/23 10/43/23 42/45/23
f 42/45/24 41/50/24 12/49/24
f 42/45/25 36/44/25 41/50/25
f 36/51/26 9/40/26 41/42/26
f 41/50/27 40/52/27 12/49/27
f 41/42/28 35/41/28 40/39/28
f 35/41/29 8/37/29 40/39/29
f 40/52/30 38/53/30 12/49/30
f 40/39/31 34/38/31 38/54/31
f 34/55/32 7/34/32 38/36/32
f 38/53/33 39/48/33 12/49/33
f 38/53/34 33/56/34 39/48/34
f 33/56/35 11/46/35 39/48/35
f 24/57/36 37/58/36 11/59/36
f 24/33/37 31/24/37 37/60/37
f 31/24/38 10/61/38 37/60/38
f 32/32/39 36/62/39 10/61/39
f 32/32/40 29/31/40 36/62/40
f 29/63/41 9/40/41 36/51/41
f 30/64/42 35/41/42 9/40/42
f 30/64/43 27/65/43 35/41/43
f 27/65/44 8/37/44 35/41/44
f 28/66/45 34/38/45 8/37/45
f 28/28/46 25/15/46 34/55/46
f 25/15/47 7/34/47 34/55/47
f 26/67/48 33/68/48 7/69/48
f 26/27/49 23/26/49 33/70/49
f 23/71/50 11/46/50 33/56/50
f 31/24/51 32/32/51 10/61/51
f 31/24/52 22/23/52 32/32/52
f 22/23/53 5/30/53 32/32/53
f 29/63/54 30/64/54 9/40/54
f 29/63/55 21/72/55 30/64/55
f 21/72/56 4/73/56 30/64/56
f 27/65/57 28/66/57 8/37/57
f 27/65/58 19/74/58 28/66/58
f 19/75/59 3/13/59 28/28/59
f 25/76/60 26/67/60 7/69/60
f 25/15/61 15/14/61 26/77/61
f 15/14/62 2/78/62 26/77/62
f 23/71/63 24/79/63 11/46/63
f 23/12/64 16/5/64 24/33/64
f 16/80/65 6/81/65 24/82/65
f 17/11/66 22/23/66 6/22/66
f 17/11/67 20/10/67 22/23/67
f 20/83/68 5/84/68 22/85/68
f 20/86/69 21/87/69 5/88/69
f 20/9/70 18/8/70 21/89/70
f 18/8/71 4/16/71 21/89/71
f 18/8/72 19/17/72 4/16/72
f 18/8/73 13/7/73 19/17/73
f 13/90/74 3/13/74 19/75/74
f 16/80/75 17/91/75 6/81/75
f 16/5/76 14/2/76 17/11/76
f 14/2/77 1/1/77 17/11/77
f 13/90/78 15/14/78 3/13/78
f 13/92/79 14/93/79 15/94/79
f 14/95/80 2/96/80 15/97/80
