# Blender v2.79 (sub 4) OBJ File: 'tank.blend'
# www.blender.org
mtllib tank.mtl
o tank_turret_Cube.001
v -0.501520 1.231410 0.403811
v -0.657205 2.006461 0.529165
v -0.501520 1.231410 -0.403811
v -0.657205 2.006461 -0.529165
v 0.501520 1.231410 0.403811
v 0.687533 1.846202 0.147303
v 0.501520 1.231410 -0.403811
v 0.687533 1.846202 -0.147303
v -0.775544 1.381129 0.624449
v -0.775544 1.381129 -0.624449
v 0.745217 1.541387 -0.164906
v 0.745217 1.541387 0.164906
v 0.657205 2.006461 -0.529165
v 0.657205 2.006461 0.529165
v 0.775544 1.381129 -0.624449
v 0.775544 1.381129 0.624449
v 2.800900 1.846202 -0.147303
v 2.800900 1.846202 0.147303
v 2.800900 1.541387 -0.164906
v 2.800900 1.541387 0.164906
vt 0.000000 0.738091
vt 0.177873 0.423279
vt 0.177873 0.764093
vt 0.525642 0.749678
vt 0.702236 0.358692
vt 0.702236 0.781971
vt 0.822583 0.560979
vt 0.914760 0.000000
vt 0.914760 0.560979
vt 0.349047 0.749678
vt 0.525642 0.358692
vt 0.525642 0.781971
vt 0.061665 0.074779
vt 0.287383 0.348500
vt 0.061665 0.348500
vt 0.349047 0.000000
vt 0.644834 0.358692
vt 0.349047 0.358692
vt 0.349047 0.000000
vt 0.287382 0.074779
vt 0.000000 0.000000
vt 0.000000 0.423279
vt 0.349047 0.423279
vt 0.690387 0.210605
vt 0.644834 0.026002
vt 0.690387 0.130209
vt 0.777030 0.215408
vt 0.644834 0.314812
vt 0.777030 0.125405
vt 0.822583 0.000000
vt 0.822583 0.340814
vt 0.260211 0.508479
vt 0.344449 0.423279
vt 0.344449 0.513282
vt 1.000000 0.560979
vt 0.914760 0.000000
vt 1.000000 0.000000
vt 0.822583 0.356555
vt 0.737343 0.917535
vt 0.737343 0.340814
vt 0.177873 1.000000
vt 0.260210 0.423279
vt 0.260211 1.000000
vt 0.000000 0.449281
vt 0.525642 0.390986
vt 0.822583 0.000000
vt 0.349047 0.390986
vt 0.644834 0.000000
vt 0.260211 0.428083
vt 0.914760 0.576721
vt 0.822583 0.917535
vt 0.177873 0.423279
vn -0.9826 0.1859 0.0000
vn 0.0000 0.1506 -0.9886
vn 0.0000 -1.0000 0.0000
vn 0.0000 0.1506 0.9886
vn 0.0000 1.0000 0.0000
vn 0.0000 -0.8275 0.5615
vn 0.4795 -0.8776 0.0000
vn 0.0000 -0.8275 -0.5615
vn -0.4795 -0.8776 0.0000
vn 0.9826 0.1859 0.0000
vn 1.0000 -0.0000 0.0000
vn 0.0000 0.0577 -0.9983
vn 0.0000 0.0577 0.9983
usemtl tank_turret
s off
f 2/1/1 10/2/1 9/3/1
f 4/4/2 15/5/2 10/6/2
f 11/7/3 20/8/3 12/9/3
f 14/10/4 9/11/4 16/12/4
f 7/13/3 1/14/3 3/15/3
f 4/16/5 14/17/5 13/18/5
f 16/19/6 1/14/6 5/20/6
f 15/21/7 5/20/7 7/13/7
f 10/22/8 7/13/8 3/15/8
f 9/23/9 3/15/9 1/14/9
f 8/24/10 14/25/10 6/26/10
f 11/27/10 13/28/10 8/24/10
f 12/29/10 14/25/10 16/30/10
f 12/29/10 15/31/10 11/27/10
f 17/32/11 20/33/11 19/34/11
f 11/35/12 17/36/12 19/37/12
f 12/38/13 18/39/13 6/40/13
f 6/41/5 17/42/5 8/43/5
f 2/1/1 4/44/1 10/2/1
f 4/4/2 13/45/2 15/5/2
f 11/7/3 19/46/3 20/8/3
f 14/10/4 2/47/4 9/11/4
f 7/13/3 5/20/3 1/14/3
f 4/16/5 2/48/5 14/17/5
f 16/19/6 9/23/6 1/14/6
f 15/21/7 16/19/7 5/20/7
f 10/22/8 15/21/8 7/13/8
f 9/23/9 10/22/9 3/15/9
f 8/24/10 13/28/10 14/25/10
f 11/27/10 15/31/10 13/28/10
f 12/29/10 6/26/10 14/25/10
f 12/29/10 16/30/10 15/31/10
f 17/32/11 18/49/11 20/33/11
f 11/35/12 8/50/12 17/36/12
f 12/38/13 20/51/13 18/39/13
f 6/41/5 18/52/5 17/42/5
o tank_body_Cube
v 1.525545 0.010836 -0.991604
v 1.525545 0.010836 0.991604
v -1.525545 0.010836 0.991604
v -1.525544 0.010836 -0.991604
v 1.367996 1.256668 -0.889196
v 1.367995 1.256668 0.889197
v -1.367996 1.256668 0.889197
v -1.367995 1.256668 -0.889197
v 1.752587 0.703206 -1.139181
v 1.752586 0.703206 1.139182
v -1.752587 0.703206 1.139181
v -1.752586 0.703206 -1.139181
v 1.525545 0.010836 -0.330535
v 1.525545 0.010836 0.330535
v -1.525545 0.010836 0.330534
v -1.525544 0.010836 -0.330535
v 1.367995 1.256668 -0.296398
v 1.367995 1.256668 0.296399
v -1.367996 1.256668 0.296399
v -1.367995 1.256668 -0.296399
v -1.907471 0.703206 0.413285
v -1.907470 0.703206 -0.413285
v 1.907471 0.703206 -0.413285
v 1.907470 0.703206 0.413286
v 1.661389 0.317370 -0.991604
v 1.661389 0.317370 0.991604
v -1.661389 0.317370 0.991604
v -1.661388 0.317370 -0.991604
v 1.661389 0.317370 -0.330535
v 1.661389 0.317370 0.330535
v -1.661389 0.317370 0.330534
v -1.661389 0.317370 -0.330535
vt 0.952119 0.459117
vt 0.848848 0.918235
vt 0.848848 0.459117
vt 0.224263 0.081178
vt 0.316869 0.492881
vt 0.224263 0.492881
vt 0.242523 0.574059
vt 0.355921 0.550753
vt 0.550749 0.057872
vt 0.463745 0.527446
vt 0.463745 0.000000
vt 0.113398 0.000000
vt 0.039052 0.081178
vt 0.000000 0.023306
vt 0.745577 0.034165
vt 0.697696 0.513723
vt 0.697696 0.013723
vt 0.637753 0.000000
vt 0.550749 0.469574
vt 0.550749 0.057872
vt 0.479305 0.636677
vt 0.550351 0.549653
vt 0.550351 0.649129
vt 0.403802 0.513723
vt 0.403802 0.013723
vt 0.355921 0.636677
vt 0.426967 0.549653
vt 0.426967 0.649129
vt 0.426967 0.848080
vt 0.355921 0.761056
vt 0.426967 0.748604
vt 0.550351 0.848079
vt 0.479305 0.761056
vt 0.550351 0.748604
vt 0.316869 0.081178
vt 0.242523 0.000000
vt 0.355921 0.023306
vt 0.039052 0.492881
vt 0.113398 0.574059
vt 0.000000 0.550753
vt 0.131658 0.492881
vt 0.131658 0.081178
vt 0.848848 0.459117
vt 0.952119 0.000000
vt 0.952119 0.459117
vt 0.602689 0.748604
vt 0.602689 0.848080
vt 0.479305 0.848080
vt 0.479305 0.748604
vt 0.479305 0.649129
vt 0.479305 0.549653
vt 0.355921 0.493282
vt 0.355921 0.034164
vt 0.602689 0.549653
vt 0.602689 0.649129
vt 0.637753 0.527446
vt 0.848848 0.000000
vt 0.745577 0.500000
vt 0.745577 0.000000
vt 0.745577 0.500000
vt 0.793458 0.979559
vt 0.745577 1.000000
vt 1.000000 0.020441
vt 0.952119 0.500000
vt 0.952119 0.000000
vt 0.952119 0.918235
vt 0.550749 0.469574
vt 0.745577 0.493282
vt 0.489966 0.527446
vt 0.366582 0.527446
vt 0.366582 0.870286
vt 0.489966 0.870286
vt 0.848848 0.000000
vt 0.848848 0.500000
vt 0.793458 0.520441
vt 1.000000 0.479559
vn 0.0000 -1.0000 0.0000
vn 0.0000 1.0000 0.0000
vn 0.7734 0.6120 0.1650
vn -0.0000 0.4116 0.9113
vn -0.7734 0.6120 -0.1650
vn 0.0000 -0.0000 -1.0000
vn 0.0000 0.4116 -0.9113
vn -0.8431 -0.5377 -0.0000
vn -0.0000 -0.3572 0.9340
vn 0.8431 -0.5377 0.0000
vn -0.7734 0.6120 0.1650
vn -0.7161 0.6980 -0.0000
vn 0.7735 0.6120 -0.1650
vn 0.7161 0.6980 0.0000
vn -0.9142 -0.4052 -0.0000
vn 0.9142 -0.4052 0.0000
vn -0.0000 0.0000 1.0000
vn 0.0000 -0.3572 -0.9340
vn -0.9339 -0.2969 -0.1993
vn 0.9339 -0.2969 0.1993
vn 0.9339 -0.2969 -0.1993
vn -0.9339 -0.2969 0.1993
usemtl tank_body
s off
f 22/53/14 35/54/14 34/55/14
f 39/56/15 26/57/15 38/58/15
f 44/59/16 26/57/16 30/60/16
f 26/61/17 31/62/17 30/63/17
f 42/64/18 28/65/18 32/66/18
f 21/67/19 48/68/19 45/69/19
f 29/70/20 28/71/20 25/72/20
f 42/73/21 48/74/21 52/75/21
f 30/63/22 47/76/22 46/77/22
f 44/78/23 46/79/23 50/80/23
f 45/81/23 43/82/23 49/83/23
f 43/82/23 50/80/23 49/83/23
f 47/84/21 41/85/21 51/86/21
f 51/86/21 42/73/21 52/75/21
f 27/87/24 41/88/24 31/89/24
f 39/56/25 42/64/25 41/88/25
f 25/90/26 43/91/26 29/92/26
f 37/93/27 44/59/27 43/91/27
f 28/65/15 37/93/15 25/90/15
f 40/94/15 38/58/15 37/93/15
f 33/95/14 24/96/14 21/97/14
f 47/84/28 35/98/28 23/99/28
f 21/100/29 49/83/29 33/101/29
f 34/102/29 46/79/29 22/103/29
f 46/77/30 23/104/30 22/105/30
f 52/75/28 24/106/28 36/107/28
f 45/69/31 32/108/31 29/70/31
f 50/109/14 52/110/14 49/111/14
f 50/112/19 35/113/19 51/114/19
f 36/115/30 49/116/30 52/117/30
f 22/53/14 23/118/14 35/54/14
f 39/56/15 27/87/15 26/57/15
f 44/59/27 38/58/27 26/57/27
f 26/61/17 27/119/17 31/62/17
f 42/64/25 40/94/25 28/65/25
f 21/67/19 24/120/19 48/68/19
f 29/70/20 32/108/20 28/71/20
f 42/73/32 32/121/32 48/74/32
f 30/63/22 31/62/22 47/76/22
f 44/78/33 30/122/33 46/79/33
f 45/81/34 29/123/34 43/82/34
f 43/82/23 44/78/23 50/80/23
f 47/84/35 31/124/35 41/85/35
f 51/86/21 41/85/21 42/73/21
f 27/87/25 39/56/25 41/88/25
f 39/56/25 40/94/25 42/64/25
f 25/90/27 37/93/27 43/91/27
f 37/93/27 38/58/27 44/59/27
f 28/65/15 40/94/15 37/93/15
f 40/94/15 39/56/15 38/58/15
f 33/95/14 36/125/14 24/96/14
f 47/84/28 51/86/28 35/98/28
f 21/100/29 45/81/29 49/83/29
f 34/102/29 50/80/29 46/79/29
f 46/77/30 47/76/30 23/104/30
f 52/75/28 48/74/28 24/106/28
f 45/69/31 48/68/31 32/108/31
f 50/109/14 51/126/14 52/110/14
f 50/112/19 34/127/19 35/113/19
f 36/115/30 33/128/30 49/116/30
